<?xml version="1.0" encoding="UTF-8"?>
<svg version="1.1" xmlns="http://www.w3.org/2000/svg" width="64" height="64">
<path d="M0 0 C1.546875 0.185625 1.546875 0.185625 3.125 0.375 C5 2.875 5 2.875 6.125 5.375 C6.785 4.715 7.445 4.055 8.125 3.375 C11.86590232 3.375 13.65456764 4.72899693 16.25 7.1875 C20.56755042 11.16041225 25.59750593 12.67577036 31.125 14.375 C30.5625 16.25 30.5625 16.25 29.125 18.375 C23.60598709 20.59982965 18.08402929 20.78476547 12.1875 21 C10.87555664 21.05800781 10.87555664 21.05800781 9.53710938 21.1171875 C7.40005369 21.2106107 5.26255706 21.29385398 3.125 21.375 C3.125 24.015 3.125 26.655 3.125 29.375 C5.435 28.715 7.745 28.055 10.125 27.375 C7.815 26.715 5.505 26.055 3.125 25.375 C3.455 24.055 3.785 22.735 4.125 21.375 C6.02010699 21.29339252 7.91624504 21.23553541 9.8125 21.1875 C10.86824219 21.15269531 11.92398438 21.11789063 13.01171875 21.08203125 C16.47922768 21.40833385 18.30932448 22.38469875 21.125 24.375 C20.81119894 27.27765983 20.55552594 28.92791537 18.5 31.0625 C15.48524368 32.72854955 12.45626629 33.54218343 9.125 34.375 C9.393125 35.591875 9.66125 36.80875 9.9375 38.0625 C10.234375 40.26171875 10.234375 40.26171875 10.125 42.375 C7.6875 45.375 7.6875 45.375 5.125 47.375 C5.805625 48.055625 6.48625 48.73625 7.1875 49.4375 C9.125 52.375 9.125 52.375 9.0625 56 C7.77251958 60.6439295 7.77251958 60.6439295 5.125 62.375 C4.135 62.375 3.145 62.375 2.125 62.375 C2.125 61.715 2.125 61.055 2.125 60.375 C0.805 60.375 -0.515 60.375 -1.875 60.375 C-2.205 57.735 -2.535 55.095 -2.875 52.375 C-4.03337626 56.42931692 -3.71191257 58.59312119 -1.875 62.375 C-5.66633356 61.83338092 -7.53609564 60.38216275 -9.875 57.375 C-10.4375 55 -10.4375 55 -9.875 52.375 C-8.36448728 50.16411114 -6.70973123 48.34733607 -4.875 46.375 C-5.49375 46.106875 -6.1125 45.83875 -6.75 45.5625 C-8.875 44.375 -8.875 44.375 -10.875 41.375 C-10.55373872 38.74065746 -10.06144952 36.74789903 -8.875 34.375 C-9.64585938 34.10945313 -10.41671875 33.84390625 -11.2109375 33.5703125 C-12.71527344 33.04050781 -12.71527344 33.04050781 -14.25 32.5 C-15.24773438 32.15195312 -16.24546875 31.80390625 -17.2734375 31.4453125 C-19.875 30.375 -19.875 30.375 -21.875 28.375 C-21.75 25.875 -21.75 25.875 -20.875 23.375 C-18.8203125 22.21875 -18.8203125 22.21875 -16.875 21.375 C-17.71804687 21.20484375 -18.56109375 21.0346875 -19.4296875 20.859375 C-20.52539062 20.61703125 -21.62109375 20.3746875 -22.75 20.125 C-23.84054688 19.89296875 -24.93109375 19.6609375 -26.0546875 19.421875 C-28.875 18.375 -28.875 18.375 -30.2578125 16.265625 C-30.46148438 15.64171875 -30.66515625 15.0178125 -30.875 14.375 C-30.17375 14.16746094 -29.4725 13.95992187 -28.75 13.74609375 C-22.46234387 11.70431411 -18.26367068 9.51487947 -13.7265625 4.66796875 C-11.875 3.375 -11.875 3.375 -9.2109375 3.55078125 C-6.875 4.375 -6.875 4.375 -5.875 6.375 C-5.565625 5.570625 -5.25625 4.76625 -4.9375 3.9375 C-3.49383408 0.45571749 -3.49383408 0.45571749 0 0 Z M-3.875 24.375 C-4.205 24.705 -4.535 25.035 -4.875 25.375 C-6.38969448 25.60692865 -7.91254562 25.78715238 -9.4375 25.9375 C-10.67693359 26.06318359 -10.67693359 26.06318359 -11.94140625 26.19140625 C-12.89853516 26.28228516 -12.89853516 26.28228516 -13.875 26.375 C-10.97407498 28.30895001 -9.97825263 28.67631941 -6.6875 29 C-5.429375 29.12375 -4.17125 29.2475 -2.875 29.375 C-2.875 27.725 -2.875 26.075 -2.875 24.375 C-3.205 24.375 -3.535 24.375 -3.875 24.375 Z M-2.875 36.375 C-3.535 37.035 -4.195 37.695 -4.875 38.375 C-4.5564823 40.48320797 -4.5564823 40.48320797 -3.875 42.375 C-3.215 42.375 -2.555 42.375 -1.875 42.375 C-1.875 40.395 -1.875 38.415 -1.875 36.375 C-2.205 36.375 -2.535 36.375 -2.875 36.375 Z M2.125 36.375 C2.125 38.355 2.125 40.335 2.125 42.375 C3.115 41.385 4.105 40.395 5.125 39.375 C4.135 38.385 3.145 37.395 2.125 36.375 Z M2.125 51.375 C2.125 54.345 2.125 57.315 2.125 60.375 C2.785 59.715 3.445 59.055 4.125 58.375 C3.80173447 54.77820934 3.80173447 54.77820934 3.125 51.375 C2.795 51.375 2.465 51.375 2.125 51.375 Z " fill="#DEFF00" transform="translate(32.875,0.625)"/>
</svg>
